<svg width="61" height="60" viewBox="0 0 61 60" fill="none" xmlns="http://www.w3.org/2000/svg">
<path d="M0.5 30C0.5 13.4315 13.9315 0 30.5 0C47.0685 0 60.5 13.4315 60.5 30C60.5 46.5685 47.0685 60 30.5 60C13.9315 60 0.5 46.5685 0.5 30Z" fill="#F68634"/>
<path d="M33.8003 22.7422C33.8003 20.9746 32.3108 19.5371 30.4795 19.5371C28.6499 19.5371 27.159 20.9746 27.159 22.7422C27.159 24.5083 28.6499 25.9463 30.4795 25.9463C32.3108 25.9463 33.8003 24.5083 33.8003 22.7422ZM38.4995 22.7422C38.4995 27.0098 34.9036 30.4814 30.4798 30.4814C26.0567 30.4814 22.4597 27.0098 22.4597 22.7422C22.4597 18.4727 26.0567 15 30.4798 15C34.9036 15 38.4995 18.4727 38.4995 22.7422ZM38.4021 34.939C36.9519 35.8179 35.3775 36.4414 33.7449 36.8003L38.2283 41.1289C39.1467 42.0132 39.1467 43.4502 38.2283 44.3359C37.3108 45.2217 35.8238 45.2217 34.9072 44.3359L30.4993 40.0825L26.095 44.3359C25.6358 44.7783 25.034 44.9995 24.4324 44.9995C23.8316 44.9995 23.2307 44.7783 22.7715 44.3359C21.854 43.4502 21.854 42.0142 22.7705 41.1289L27.2544 36.8003C25.6218 36.4414 24.0474 35.8169 22.5974 34.939C21.5 34.271 21.1702 32.8716 21.8616 31.8115C22.5513 30.7495 24.0015 30.4302 25.1008 31.0981C28.384 33.0918 32.6135 33.0923 35.8987 31.0981C36.9981 30.4302 38.4475 30.7495 39.1387 31.8115C39.8301 32.8706 39.4995 34.271 38.4021 34.939Z" fill="white"/>
</svg>
