<svg width="61" height="60" viewBox="0 0 61 60" fill="none" xmlns="http://www.w3.org/2000/svg">
<path d="M0.5 30C0.5 13.4315 13.9315 0 30.5 0C47.0685 0 60.5 13.4315 60.5 30C60.5 46.5685 47.0685 60 30.5 60C13.9315 60 0.5 46.5685 0.5 30Z" fill="#4C6C91"/>
<path d="M32.0693 39.8451C32.0693 39.8451 32.6469 39.7821 32.9427 39.4702C33.2134 39.1845 33.204 38.6452 33.204 38.6452C33.204 38.6452 33.168 36.1272 34.3591 35.7554C35.5329 35.3898 37.0402 38.1905 38.6397 39.2674C39.848 40.0817 40.7651 39.9035 40.7651 39.9035L45.0395 39.8451C45.0395 39.8451 47.2745 39.7099 46.2149 37.9846C46.1272 37.8433 45.5967 36.7079 43.0377 34.3758C40.3566 31.9346 40.7166 32.3294 43.9439 28.1061C45.9097 25.5343 46.6954 23.9642 46.4497 23.2928C46.2165 22.6506 44.7703 22.8212 44.7703 22.8212L39.9591 22.8504C39.9591 22.8504 39.6023 22.8027 39.3378 22.9579C39.0795 23.11 38.912 23.4649 38.912 23.4649C38.912 23.4649 38.1514 25.4544 37.1356 27.1474C34.993 30.7178 34.1369 30.9068 33.7863 30.6856C32.9708 30.1678 33.1743 28.6085 33.1743 27.5008C33.1743 24.0395 33.7096 22.5969 32.1335 22.2235C31.6107 22.0991 31.2257 22.0177 29.8875 22.0038C28.1706 21.9869 26.7182 22.01 25.8949 22.4048C25.3471 22.6675 24.9245 23.2544 25.1828 23.2882C25.5005 23.3297 26.2205 23.4787 26.6024 23.9888C27.0954 24.6478 27.0782 26.1258 27.0782 26.1258C27.0782 26.1258 27.3614 30.2001 26.4161 30.7055C25.7681 31.0527 24.8792 30.3445 22.9681 27.1044C21.9899 25.4452 21.2512 23.6108 21.2512 23.6108C21.2512 23.6108 21.1088 23.2682 20.8537 23.0839C20.5453 22.8611 20.1149 22.792 20.1149 22.792L15.5432 22.8212C15.5432 22.8212 14.8561 22.8396 14.6041 23.133C14.3803 23.3927 14.5869 23.9319 14.5869 23.9319C14.5869 23.9319 18.1664 32.1528 22.22 36.2962C25.9372 40.094 30.1567 39.8451 30.1567 39.8451H32.0693Z" fill="white"/>
</svg>
